<svg xmlns="http://www.w3.org/2000/svg">
  <symbol id="phone" viewBox="0 0 24 24">
    <path
      d="M23.9481 18.5956C23.8802 18.3911 23.4483 18.0898 22.6528 17.6924C22.4372 17.5671 22.1301 17.3969 21.7328 17.181C21.335 16.965 20.974 16.7661 20.6504 16.5842C20.3261 16.4024 20.0222 16.2263 19.7384 16.0561C19.693 16.022 19.551 15.9227 19.3123 15.7576C19.0735 15.5929 18.872 15.4707 18.707 15.391C18.5422 15.3118 18.3802 15.2719 18.2211 15.2719C17.9939 15.2719 17.7101 15.4339 17.3693 15.7576C17.0285 16.0816 16.7159 16.4336 16.432 16.8147C16.148 17.1955 15.8468 17.5475 15.5289 17.8714C15.2106 18.1954 14.949 18.3572 14.7447 18.3572C14.6422 18.3572 14.5143 18.3286 14.361 18.2722C14.2078 18.2154 14.0913 18.1668 14.0113 18.1276C13.932 18.0875 13.7959 18.0082 13.6026 17.8885C13.409 17.7692 13.3013 17.7038 13.2786 17.6924C11.7218 16.8286 10.3867 15.8399 9.273 14.7266C8.15962 13.6127 7.17084 12.2777 6.30725 10.7208C6.29591 10.6981 6.23042 10.5901 6.11119 10.397C5.99179 10.2038 5.91221 10.0676 5.87245 9.98781C5.83268 9.90835 5.78439 9.79181 5.72767 9.63844C5.67095 9.48506 5.64248 9.3573 5.64248 9.25491C5.64248 9.05049 5.80445 8.789 6.12833 8.47079C6.45215 8.15276 6.80451 7.8515 7.18505 7.56762C7.56589 7.28374 7.91789 6.97114 8.24183 6.63036C8.56565 6.2894 8.72756 6.00546 8.72756 5.77824C8.72756 5.61925 8.6878 5.45716 8.60834 5.29244C8.52882 5.12737 8.40667 4.92594 8.24183 4.68719C8.07693 4.44856 7.97753 4.30665 7.94338 4.26098C7.77311 3.97709 7.59717 3.67315 7.41514 3.34927C7.23311 3.02545 7.03442 2.66449 6.81842 2.26682C6.6026 1.86932 6.43227 1.5624 6.30713 1.34651C5.90964 0.551227 5.60856 0.119224 5.40397 0.0512838C5.32438 0.0171941 5.20498 0 5.04605 0C4.73907 0 4.33859 0.0567167 3.84432 0.170508C3.34987 0.284121 2.96079 0.403286 2.67667 0.52848C2.10849 0.766989 1.50628 1.46013 0.869857 2.60766C0.290332 3.6756 0.000598907 4.73262 0.000598907 5.77794C0.000598907 6.08451 0.0204796 6.38278 0.060241 6.67281C0.100002 6.96254 0.171047 7.28929 0.273436 7.65299C0.375645 8.01658 0.458093 8.28667 0.520422 8.46255C0.58281 8.63855 0.699289 8.95384 0.869797 9.40852C1.04007 9.86309 1.14245 10.1414 1.17654 10.2436C1.57422 11.3573 2.0458 12.3515 2.59118 13.2266C3.4885 14.681 4.71304 16.1841 6.26409 17.7353C7.8152 19.2864 9.31802 20.5108 10.7726 21.4085C11.6475 21.9538 12.6421 22.4254 13.7556 22.8233C13.8579 22.8573 14.1362 22.9594 14.5906 23.1303C15.0451 23.3007 15.3605 23.4171 15.5365 23.4796C15.7126 23.5422 15.9828 23.6247 16.346 23.7271C16.7101 23.8295 17.0366 23.9005 17.3263 23.9406C17.6162 23.9798 17.9145 24.0001 18.2212 24.0001C19.2664 24.0001 20.3235 23.7101 21.3916 23.1307C22.539 22.4945 23.232 21.8922 23.4706 21.3236C23.5961 21.0397 23.715 20.6506 23.8286 20.1561C23.9426 19.6619 23.9992 19.2615 23.9992 18.9545C23.9995 18.795 23.9824 18.6759 23.9481 18.5956Z" />
  </symbol>
  <symbol id="board" viewBox="0 0 52 52">
    <path
      d="M47.6224 4.37754C47.352 4.10692 46.9749 3.97023 46.5941 4.00545C46.4351 4.01989 42.6411 4.38072 37.4378 6.12723C20.5036 11.3426 9.29627 27.7628 4.08474 39.6415C3.7567 40.4259 4.41948 41.4759 5.41151 41.3891L11.1678 40.8291L10.6078 46.5849C10.5465 47.4123 11.3497 48.2837 12.3555 47.9116C33.0348 38.4891 45.6483 24.0671 47.9947 5.40583C48.0294 5.0248 47.8931 4.64799 47.6224 4.37754ZM30.9597 32.7069C28.6747 34.7864 26.4223 36.574 24.3403 38.0798V16.1341C26.5228 14.3454 28.7848 12.8957 30.9597 11.7252V32.7069ZM18.3821 41.9794C16.3358 43.1817 14.6086 44.0592 13.387 44.6383L13.885 39.5196C13.9589 38.8536 13.3427 38.0111 12.4774 38.1122L7.36042 38.6099C9.08912 34.9423 13.7449 26.4028 21.7627 18.4555V39.8653C20.5271 40.6844 19.3872 41.3889 18.3821 41.9794ZM43.405 13.8128C41.8914 18.2983 38.9521 24.7742 33.5372 30.2415V10.4412C37.0645 8.73768 42.4534 7.21067 45.194 6.80577C44.9314 8.3448 44.4041 10.8517 43.405 13.8128Z" />
  </symbol>
  <symbol id="tool" viewBox="0 0 52 52">
    <g clip-path="url(#clip0_2_1032)">
      <path
        d="M46.7109 19.5547H37.4859C37.4867 19.5466 37.4881 19.5386 37.489 19.5305C38.5624 18.6069 39.4204 17.5102 40.0436 16.264C40.2435 15.8644 40.2221 15.3899 39.9873 15.0099C39.7523 14.6298 39.3374 14.3984 38.8906 14.3984H36.9008C36.4691 13.1771 35.8389 12.0492 35.0187 11.0309C35.1239 9.62022 34.955 8.23997 34.5149 6.9198C34.3737 6.49596 34.023 6.1755 33.5882 6.07289C33.1533 5.97019 32.6965 6.10013 32.3805 6.41595L30.9706 7.82584C29.8057 7.26897 28.5654 6.91748 27.2672 6.77663C26.2944 5.63065 25.1731 4.72358 23.9983 4.13612C23.5987 3.93631 23.1243 3.95762 22.7441 4.19249C22.3642 4.42736 22.1328 4.84226 22.1328 5.28905V7.36479C20.9116 7.79645 19.7835 8.4268 18.7653 9.2469C17.3548 9.1418 15.9743 9.31067 14.6544 9.75076C14.2305 9.89204 13.9101 10.2427 13.8074 10.6775C13.7048 11.1123 13.8346 11.5693 14.1505 11.8851L15.5601 13.2948C15.0029 14.4606 14.6513 15.7017 14.5107 17.0009C13.647 17.7441 12.9231 18.5995 12.3484 19.5548H5.28906C4.57716 19.5548 4 20.1319 4 20.8438V26.0001C4 26.712 4.57716 27.2891 5.28906 27.2891H6.66406V46.711C6.66406 47.4229 7.24122 48.0001 7.95312 48.0001H13.1094C13.8213 48.0001 14.3984 47.4229 14.3984 46.711V42.3416L26 37.701L37.6016 42.3416V46.7109C37.6016 47.4228 38.1787 48 38.8906 48H44.0469C44.7588 48 45.3359 47.4228 45.3359 46.7109V27.2891H46.7109C47.4228 27.2891 48 26.7119 48 26V20.8437C48 20.1318 47.4228 19.5547 46.7109 19.5547ZM16.5384 18.6726C16.8324 18.445 17.0138 18.1015 17.0359 17.7302C17.122 16.2914 17.5325 14.9395 18.2563 13.7122C18.5549 13.2059 18.473 12.5616 18.0574 12.1459L17.7103 11.7988C18.1413 11.7856 18.5778 11.8068 19.0183 11.8626C19.3871 11.9093 19.7584 11.7945 20.0365 11.5475C21.1136 10.5906 22.3613 9.92383 23.745 9.56547C24.3137 9.41835 24.7109 8.90522 24.7109 8.31775V7.80771C25.0177 8.10952 25.3132 8.44287 25.5929 8.80415C25.8206 9.09815 26.1641 9.27948 26.5352 9.30165C27.974 9.38758 29.3259 9.79819 30.5533 10.522C31.0597 10.8205 31.7039 10.7387 32.1195 10.3231L32.4668 9.97591C32.48 10.4069 32.4588 10.8435 32.403 11.284C32.3563 11.6529 32.4711 12.0241 32.7182 12.3022C33.675 13.3793 34.3418 14.627 34.7001 16.0107C34.8474 16.5794 35.3606 16.9766 35.948 16.9766H36.4345C36.1384 17.2916 35.8137 17.586 35.4617 17.8586C35.1677 18.0863 34.9864 18.4298 34.9642 18.8009C34.9491 19.0536 34.923 19.3052 34.8872 19.5548H29.6455C29.7886 19.1513 29.8672 18.7176 29.8672 18.2657C29.8672 16.1333 28.1324 14.3985 26 14.3985C23.8676 14.3985 22.1328 16.1333 22.1328 18.2657C22.1328 18.7176 22.2114 19.1513 22.3545 19.5548H15.5662C15.8624 19.2397 16.1865 18.9451 16.5384 18.6726ZM27.2891 18.2656C27.2891 18.9764 26.7108 19.5547 26 19.5547C25.2892 19.5547 24.7109 18.9764 24.7109 18.2656C24.7109 17.5548 25.2892 16.9766 26 16.9766C26.7108 16.9766 27.2891 17.5548 27.2891 18.2656ZM11.8203 45.4219H9.24219V27.2891H11.8203C11.8203 27.2803 11.8204 40.0167 11.8203 45.4219ZM14.3984 39.5648V33.0603L22.5291 36.3125L14.3984 39.5648ZM37.6016 39.5648L29.4709 36.3125L37.6016 33.0603V39.5648ZM37.6016 30.2835L26 34.9242L14.3984 30.2835V27.2891H37.6016V30.2835ZM42.7578 45.4219H40.1797C40.1797 43.1353 40.1797 30.0464 40.1797 27.2891H42.7578V45.4219ZM45.4219 24.7109H6.57812V22.1328H45.4219V24.7109Z" />
    </g>
    <defs>
      <clipPath id="clip0_2_1032">
        <rect width="44" height="44" fill="white" transform="translate(4 4)" />
      </clipPath>
    </defs>
  </symbol>
  <symbol id="car" viewBox="0 0 52 52">
    <path
      d="M37.2311 30.4117C34.1728 30.4117 31.6849 32.8997 31.6849 35.958C31.6849 39.0162 34.1728 41.5042 37.2311 41.5042C40.2899 41.5042 42.7773 39.0162 42.7773 35.958C42.7773 32.8997 40.2893 30.4117 37.2311 30.4117ZM37.2311 38.7311C35.7017 38.7311 34.458 37.4873 34.458 35.958C34.458 34.4286 35.7017 33.1849 37.2311 33.1849C38.7604 33.1849 40.0042 34.4286 40.0042 35.958C40.0042 37.4874 38.7604 38.7311 37.2311 38.7311Z" />
    <path
      d="M18.2815 30.4117C15.2233 30.4117 12.7353 32.8997 12.7353 35.958C12.7353 39.0162 15.2233 41.5042 18.2815 41.5042C21.3398 41.5042 23.8278 39.0162 23.8278 35.958C23.8278 32.8997 21.3398 30.4117 18.2815 30.4117ZM18.2815 38.7311C16.7522 38.7311 15.5084 37.4873 15.5084 35.958C15.5084 34.4286 16.7522 33.1849 18.2815 33.1849C19.8104 33.1849 21.0546 34.4286 21.0546 35.958C21.0546 37.4874 19.8109 38.7311 18.2815 38.7311Z" />
    <path
      d="M40.966 14.5367C40.7303 14.0685 40.251 13.7731 39.7269 13.7731H32.4243V16.5462H38.8718L42.6474 24.0558L45.1256 22.8097L40.966 14.5367Z" />
    <path
      d="M33.0715 34.6177H22.5799V37.3908H33.0715V34.6177Z" />
    <path
      d="M14.1218 34.6177H9.31515C8.54928 34.6177 7.92864 35.2384 7.92864 36.0042C7.92864 36.7701 8.54936 37.3907 9.31515 37.3907H14.1219C14.8878 37.3907 15.5084 36.77 15.5084 36.0042C15.5084 35.2383 14.8877 34.6177 14.1218 34.6177Z" />
    <path
      d="M47.7088 26.1412L44.9815 22.6285C44.7195 22.2902 44.3151 22.0924 43.8866 22.0924H33.8109V12.3865C33.8109 11.6206 33.1902 11 32.4244 11H9.31515C8.54928 11 7.92864 11.6207 7.92864 12.3865C7.92864 13.1523 8.54936 13.773 9.31515 13.773H31.0378V23.4789C31.0378 24.2448 31.6586 24.8654 32.4243 24.8654H43.2076L45.2269 27.4666V34.6175H41.3907C40.6249 34.6175 40.0042 35.2382 40.0042 36.004C40.0042 36.7699 40.6249 37.3906 41.3907 37.3906H46.6134C47.3793 37.3906 47.9999 36.7698 48 36.004V26.9916C48 26.6838 47.8974 26.3843 47.7088 26.1412Z" />
    <path
      d="M14.0294 27.5925H7.65123C6.88535 27.5925 6.26471 28.2132 6.26471 28.979C6.26471 29.7449 6.88544 30.3655 7.65123 30.3655H14.0293C14.7952 30.3655 15.4159 29.7448 15.4159 28.979C15.4159 28.2132 14.7952 27.5925 14.0294 27.5925Z" />
    <path
      d="M17.2185 22.1386H5.38652C4.62073 22.1386 4 22.7594 4 23.5252C4 24.2911 4.62073 24.9117 5.38652 24.9117H17.2185C17.9844 24.9117 18.605 24.291 18.605 23.5252C18.605 22.7594 17.9844 22.1386 17.2185 22.1386Z" />
    <path
      d="M19.4832 16.6849H7.65123C6.88535 16.6849 6.26471 17.3056 6.26471 18.0714C6.26471 18.8373 6.88544 19.4579 7.65123 19.4579H19.4832C20.2491 19.4579 20.8697 18.8372 20.8697 18.0714C20.8698 17.3056 20.2491 16.6849 19.4832 16.6849Z" />
  </symbol>

  <symbol id="man" viewBox="0 0 44 68">
    <path
      d="M41.8359 60.0312H35.8594V55.7812H38.5223C39.6225 55.7812 40.5145 54.8893 40.5145 53.7891C40.5145 52.6888 39.6225 51.7969 38.5223 51.7969H35.8594V47.8125H41.1785C42.2787 47.8125 43.1707 46.9205 43.1707 45.8203C43.1707 44.7201 42.2787 43.8281 41.1785 43.8281H35.8594V39.8438H38.5223C39.6225 39.8438 40.5145 38.9518 40.5145 37.8516C40.5145 36.7513 39.6225 35.8594 38.5223 35.8594H35.8594V31.875H41.1785C42.2787 31.875 43.1707 30.983 43.1707 29.8828C43.1707 28.7826 42.2787 27.8906 41.1785 27.8906H35.8594V23.9062H38.5223C39.6225 23.9062 40.5145 23.0143 40.5145 21.9141C40.5145 20.8138 39.6225 19.9219 38.5223 19.9219H35.8594V15.9375H41.1785C42.2787 15.9375 43.1707 15.0455 43.1707 13.9453C43.1707 12.8451 42.2787 11.9531 41.1785 11.9531H35.8594V7.96875H38.5223C39.6225 7.96875 40.5145 7.07678 40.5145 5.97656C40.5145 4.87634 39.6225 3.98438 38.5223 3.98438H35.8594V1.99219C35.8594 0.891969 34.9674 0 33.8672 0C32.767 0 31.875 0.891969 31.875 1.99219V60.0312H24.6821L25.7778 42.5H25.9051C27.0053 42.5 27.8973 41.608 27.8973 40.5078V27.2232C27.8973 22.8007 24.9982 19.0441 21.0014 17.7493C22.7475 16.7048 23.9195 14.7956 23.9195 12.6172C23.9195 9.32171 21.2384 6.64062 17.943 6.64062C14.6475 6.64062 11.9664 9.32171 11.9664 12.6172C11.9664 14.7946 13.1373 16.703 14.882 17.7479C10.8831 19.0415 7.98203 22.7991 7.98203 27.2232V40.5078C7.98203 41.608 8.874 42.5 9.97422 42.5H10.0948L11.1905 60.0312H1.99219C0.891969 60.0312 0 60.9232 0 62.0234V66.0078C0 67.108 0.891969 68 1.99219 68C3.09241 68 3.98438 67.108 3.98438 66.0078V64.0156H39.8438V66.0078C39.8438 67.108 40.7357 68 41.8359 68C42.9362 68 43.8281 67.108 43.8281 66.0078V62.0234C43.8281 60.9232 42.9362 60.0312 41.8359 60.0312ZM17.943 10.625C19.0415 10.625 19.9352 11.5187 19.9352 12.6172C19.9352 13.7157 19.0415 14.6094 17.943 14.6094C16.8445 14.6094 15.9508 13.7157 15.9508 12.6172C15.9508 11.5187 16.8443 10.625 17.943 10.625ZM11.9664 27.2232C11.9664 23.9296 14.646 21.25 17.9398 21.25C21.2334 21.25 23.913 23.9296 23.913 27.2232V38.5156H11.9664V27.2232ZM14.0869 42.5H21.7856L20.6899 60.0312H15.1826L14.0869 42.5Z"
    />
  </symbol>
  <symbol id="eco" viewBox="0 0 68 68">
    <path
      d="M33.875 30.1811V19.8166H38.025C47.9181 19.8166 55.9666 11.768 55.9666 1.875C55.9666 0.8395 55.1271 0 54.0916 0H48.0646C41.0369 0 34.9411 4.06275 31.9996 9.96225C29.0576 4.06262 22.9615 0 15.9334 0H9.90837C8.87288 0 8.03337 0.8395 8.03337 1.875C8.03337 11.7681 16.082 19.8166 25.975 19.8166H30.125V30.1811C13.3249 31.1521 0 45.0815 0 62.125C0 63.1605 0.8395 64 1.875 64H62.125C63.1605 64 64 63.1605 64 62.125C64 45.0815 50.6751 31.1521 33.875 30.1811ZM48.0646 3.75H52.0933C51.1726 10.692 45.2145 16.0666 38.025 16.0666H33.9981C34.9174 9.12425 40.8751 3.75 48.0646 3.75ZM25.975 16.0666C18.7854 16.0666 12.8272 10.692 11.9067 3.75H15.9334C23.123 3.75 29.0811 9.12463 30.0016 16.0666H25.975ZM3.8105 60.25C4.7385 45.9209 15.2449 38.245 22.0917 35.6657V40.3778C22.0917 40.9499 21.8689 41.4879 21.4641 41.8926L15.4391 47.9176C13.1423 50.2145 13.1423 53.9519 15.4391 56.2487L19.44 60.25H3.8105ZM24.7434 60.25L18.0906 53.5973C17.2543 52.7609 17.2534 51.4065 18.0906 50.5692L24.1156 44.5444C25.2288 43.4314 25.8417 41.9516 25.8417 40.3778V34.5489C27.8536 34.1014 29.9191 33.875 32 33.875C36.9144 33.875 41.6772 35.1336 45.9062 37.5337L35.5223 47.9178C33.2226 50.2174 33.2178 53.9449 35.5223 56.2489L39.5234 60.25H24.7434ZM44.8266 60.25L38.1739 53.5971C37.3382 52.7616 37.3371 51.4062 38.1739 50.5692L49.1001 39.6431C55.6121 44.6034 59.6477 52.1131 60.1879 60.2499H44.8266V60.25Z" />
  </symbol>
  <symbol id="surfboard" viewBox="0 0 68 68">
    <path
      d="M67.58 64.7842C67.4752 64.6494 64.9503 61.4478 59.6006 58.2906C56.9903 56.75 53.3914 55.0512 48.7861 53.8092C49.7611 50.514 50.8711 45.7687 51.3499 40.1027C51.8914 33.6964 51.5072 27.4363 50.2076 21.4964C48.5791 14.0532 45.5041 7.10361 41.0679 0.840703C40.6944 0.313437 40.0884 0 39.4422 0C38.7961 0 38.1901 0.313305 37.8166 0.840703C36.4181 2.81509 35.155 4.85802 34.0297 6.96283C32.9044 4.85788 31.6415 2.81509 30.2428 0.840703C29.8694 0.313437 29.2633 0 28.6172 0C27.9711 0 27.3651 0.313305 26.9916 0.840703C22.5554 7.10348 19.4804 14.053 17.8518 21.4965C16.5523 27.4364 16.168 33.6964 16.7095 40.1029C17.2019 45.9283 18.3614 50.7807 19.3554 54.0843C15.1095 55.2884 11.6855 56.8436 9.12061 58.2632C3.46718 61.3926 0.622734 64.5502 0.504398 64.683C-0.0175553 65.2692 -0.146649 66.1072 0.174492 66.8232C0.495632 67.5391 1.20737 68 1.99216 68H66.0078C66.7688 68 67.4633 67.5664 67.7976 66.8828C68.1317 66.1992 68.0474 65.3849 67.58 64.7842ZM20.9628 26.9581L34.3264 17.8771C34.7222 19.1401 35.0719 20.4201 35.3722 21.7176L20.5296 31.8038C20.6034 30.2441 20.7425 28.6243 20.9628 26.9581ZM21.9738 21.4539C23.1906 16.3163 25.2642 10.9068 28.6188 5.57441C30.3273 8.279 31.7667 11.0904 32.9405 14.0015L21.9738 21.4539ZM20.4961 36.6438L36.179 25.9865C36.8241 30.3597 36.9548 34.9112 36.5666 39.6274C36.1538 44.6411 35.1975 48.9293 34.323 52.0159C30.2386 52.0394 26.5399 52.4701 23.2384 53.1424C22.2965 50.0504 21.1538 45.3767 20.6797 39.7673C20.5957 38.7749 20.5323 37.7314 20.4961 36.6438ZM34.6735 55.9971C45.4742 55.9971 52.9886 59.0514 57.3905 61.6136C58.8019 62.4352 59.9934 63.2602 60.9717 64.0156H7.43402C12.1776 60.6701 21.2129 55.9971 34.6735 55.9971ZM39.444 5.57441C45.7576 15.5693 48.4302 27.0098 47.3915 39.6274C46.9364 45.1541 45.8212 49.7995 44.8829 52.9247C42.8862 52.5547 40.7358 52.2795 38.4326 52.133C39.2726 48.9847 40.1222 44.8692 40.5251 40.1029C41.0665 33.6965 40.6823 27.4364 39.3827 21.4965C38.6317 18.0636 37.5721 14.7359 36.214 11.532C37.1285 9.54749 38.1975 7.55557 39.444 5.57441Z" />
  </symbol>

  <symbol id="vk" viewBox="0 0 24 24">
    <g clip-path="url(#clip0_2_1215)">
      <path
        d="M23.8692 17.5259C23.8692 17.4605 23.8038 17.3951 23.8038 17.3951C23.4114 16.6757 22.5613 15.6948 21.3842 14.6485C20.861 14.1253 20.5341 13.7984 20.4033 13.6022C20.1417 13.2752 20.0763 12.9482 20.2071 12.6212C20.3379 12.3597 20.6649 11.8365 21.3188 10.9864C21.6458 10.5286 21.9074 10.2016 22.1035 9.94004C23.5422 8.04358 24.1962 6.80108 24 6.27792L23.9346 6.14712C23.8692 5.95094 23.7384 5.88554 23.5422 5.82015C23.3461 5.75475 23.0845 5.75475 22.7575 5.82015H19.1608C19.0954 5.82015 19.03 5.82015 18.8992 5.82015C18.7684 5.82015 18.7684 5.88554 18.7684 5.88554H18.703L18.6376 5.95094C18.5722 5.95094 18.5722 6.01633 18.5068 6.08173C18.4414 6.14713 18.4414 6.21252 18.376 6.27792C17.9837 7.25884 17.5259 8.23977 17.0681 9.0899C16.7411 9.61306 16.4796 10.0708 16.218 10.4632C15.9564 10.8556 15.7602 11.1172 15.564 11.3133C15.3678 11.5095 15.2371 11.6403 15.1063 11.7711C14.9755 11.9019 14.8447 11.9019 14.7793 11.9019C14.7139 11.9019 14.6485 11.8365 14.5831 11.8365C14.4523 11.7711 14.3869 11.6403 14.3215 11.5095C14.2561 11.3787 14.1907 11.2479 14.1907 11.0518C14.1907 10.8556 14.1253 10.6594 14.1253 10.5286C14.1253 10.3978 14.1253 10.2016 14.1253 9.94004C14.1253 9.67846 14.1253 9.48227 14.1253 9.41688C14.1253 9.0899 14.1253 8.76293 14.1253 8.37056C14.1253 7.97819 14.1253 7.71661 14.1253 7.52042C14.1253 7.32424 14.1253 7.06266 14.1253 6.80108C14.1253 6.5395 14.1253 6.34331 14.0599 6.21252C14.0599 6.08173 13.9946 5.95094 13.9292 5.82015C13.8638 5.68936 13.7984 5.55857 13.6676 5.49317C13.5368 5.42778 13.406 5.36238 13.2752 5.29699C12.8174 5.1662 12.2943 5.1662 11.5749 5.1662C10.0055 5.1662 9.02452 5.23159 8.56676 5.49317C8.37057 5.55857 8.23978 5.68936 8.10899 5.88554C7.9782 6.08173 7.91281 6.14712 8.0436 6.21252C8.56676 6.27792 8.89373 6.4741 9.08992 6.73568L9.15531 6.86647C9.22071 6.99726 9.2861 7.19345 9.3515 7.45503C9.41689 7.71661 9.41689 8.04358 9.48229 8.37056C9.54768 8.95911 9.54768 9.48227 9.48229 9.94004C9.41689 10.3978 9.41689 10.7248 9.3515 10.921C9.2861 11.1825 9.2861 11.3787 9.15531 11.5095C9.08992 11.6403 9.02452 11.7711 9.02452 11.7711C9.02452 11.8365 8.95913 11.8365 8.95913 11.8365C8.82834 11.9019 8.76294 11.9019 8.63215 11.9019C8.50136 11.9019 8.37057 11.8365 8.23978 11.7057C8.0436 11.5749 7.91281 11.4441 7.71662 11.2479C7.52044 11.0518 7.32425 10.7902 7.12807 10.3978C6.93188 10.0054 6.6703 9.61306 6.40872 9.0899L6.21253 8.69753C6.08174 8.43595 5.88556 8.10898 5.68937 7.65121C5.49319 7.19345 5.297 6.80108 5.10082 6.34331C5.03542 6.21252 4.90463 6.08173 4.77384 5.95094H4.70845C4.64305 5.88554 4.57766 5.88554 4.51226 5.82015C4.44687 5.82015 4.31608 5.75475 4.25068 5.75475H0.850136C0.457766 5.75475 0.196185 5.88554 0.0653951 6.01633V6.08173C0 6.14713 0 6.21252 0 6.27792C0 6.34331 0 6.4741 0.0653951 6.60489C0.588556 7.782 1.11172 8.89372 1.70027 10.0054C2.28883 11.1172 2.81199 11.9673 3.20436 12.6212C3.66213 13.2752 4.0545 13.9291 4.51226 14.5177C4.97003 15.1063 5.23161 15.4986 5.42779 15.6294C5.55858 15.8256 5.68937 15.891 5.75477 16.0218L6.08174 16.3488C6.27793 16.5449 6.60491 16.8065 6.93188 17.0681C7.32425 17.3297 7.71662 17.5913 8.23978 17.9182C8.69755 18.1798 9.2861 18.4414 9.87466 18.5722C10.5286 18.7684 11.1172 18.8338 11.7057 18.7684H13.1444C13.406 18.7684 13.6676 18.6376 13.7984 18.5068L13.8638 18.4414C13.9292 18.376 13.9292 18.3106 13.9292 18.1798C13.9292 18.049 13.9946 17.9836 13.9946 17.8528C13.9946 17.5259 13.9946 17.1989 14.0599 16.8719C14.1253 16.6103 14.1907 16.3488 14.2561 16.218C14.3215 16.0872 14.4523 15.9564 14.5177 15.8256C14.6485 15.6948 14.7139 15.6948 14.7139 15.6294C14.7793 15.6294 14.7793 15.564 14.8447 15.564C15.0409 15.4986 15.3025 15.564 15.564 15.7602C15.8256 15.9564 16.0872 16.218 16.3488 16.4795C16.6104 16.7411 16.8719 17.0681 17.1989 17.4605C17.5259 17.7875 17.8529 18.1144 18.049 18.2452L18.3106 18.376C18.5068 18.5068 18.703 18.5722 18.9646 18.6376C19.2262 18.703 19.4877 18.7684 19.6839 18.703L22.8883 18.6376C23.2153 18.6376 23.4768 18.5722 23.6076 18.5068C23.8038 18.376 23.8692 18.3106 23.9346 18.1798C24 18.049 24 17.9182 23.9346 17.7221C23.9346 17.7221 23.9346 17.5913 23.8692 17.5259Z"
      />
    </g>
    <defs>
      <clipPath id="clip0_2_1215">
        <rect width="24" height="24" />
      </clipPath>
    </defs>
  </symbol>
  <symbol id="tw" viewBox="0 0 24 24">
    <g clip-path="url(#clip0_2_1214)">
      <path
        d="M23.346 2.41963C22.3651 3.00818 21.3188 3.40055 20.2071 3.66213C19.2916 2.68121 18.049 2.09265 16.6104 2.09265C13.8638 2.09265 11.7057 4.38148 11.7057 7.12807C11.7057 7.52044 11.7711 7.91281 11.8365 8.30519C7.71662 8.0436 4.11989 6.01636 1.70027 2.94279C1.3079 3.66213 1.04632 4.57766 1.04632 5.4932C1.04632 7.25886 1.89646 8.76295 3.26975 9.67848C2.48501 9.67848 1.70027 9.4169 1.04632 9.02453V9.15532C1.04632 11.5749 2.74659 13.6676 4.97003 14.1253C4.57766 14.2561 4.11989 14.3215 3.66213 14.3215C3.33515 14.3215 3.00817 14.3215 2.74659 14.2561C3.40054 16.2834 5.16621 17.7221 7.32425 17.7875C5.62398 19.1608 3.53133 19.9455 1.17711 19.9455C0.784741 19.9455 0.392371 19.9455 0 19.8801C2.15804 21.3188 4.77384 22.1689 7.52044 22.1689C16.6104 22.1689 21.515 14.4523 21.515 7.78202C21.515 7.58584 21.515 7.32426 21.515 7.12807C22.4959 6.40873 23.346 5.55859 24 4.51227C23.1499 4.90464 22.1689 5.16622 21.188 5.29701C22.1689 4.57767 22.9537 3.59674 23.346 2.41963Z"
      />
    </g>
    <defs>
      <clipPath id="clip0_2_1214">
        <rect width="24" height="24" />
      </clipPath>
    </defs>
  </symbol>
  <symbol id="cross" viewBox="0 0 24 24">
    <path
      d="M16.2667 12L23.2 5.06667C24.2667 4 24.2667 2.4 23.2 1.46667L22.6667 0.933333C21.6 -0.133333 20 -0.133333 19.0667 0.933333L12 7.73333L5.06667 0.8C4 -0.266667 2.4 -0.266667 1.33333 0.8L0.8 1.33333C-0.266667 2.4 -0.266667 4 0.8 4.93333L7.73333 12L0.8 18.9333C-0.266667 20 -0.266667 21.6 0.8 22.5333L1.33333 23.2C2.4 24.2667 4 24.2667 4.93333 23.2L12 16.2667L18.9333 23.2C20 24.2667 21.6 24.2667 22.5333 23.2L23.0667 22.6667C24.1333 21.6 24.1333 20 23.0667 19.0667L16.2667 12Z" />
  </symbol>
  <symbol fill="none" xmlns="http://www.w3.org/2000/svg" viewBox="0 0 24 24" id="fgrey">
    <path
      d="M24 22.692c0 .72-.589 1.308-1.308 1.308h-6.147v-9.286h3.139l.458-3.597h-3.597V8.828c0-1.046.261-1.765 1.766-1.765h1.896v-3.27c-.327-.065-1.439-.13-2.812-.13-2.746 0-4.643 1.7-4.643 4.773v2.681H9.613v3.597h3.139V24H1.308C.588 24 0 23.411 0 22.692V1.308C0 .588.589 0 1.308 0h21.384C23.412 0 24 .589 24 1.308v21.384z"
      fill="#B3B3B3"></path>
  </symbol>
  <symbol fill="none" xmlns="http://www.w3.org/2000/svg" id="iconboard">
    <path
      d="M34.548.452a1.015 1.015 0 00-.81-.294c-.126.012-3.117.296-7.22 1.673C13.166 5.943 4.33 18.89.221 28.256c-.259.618.264 1.446 1.046 1.378l4.538-.442-.441 4.538c-.049.653.585 1.34 1.378 1.046 16.305-7.429 26.25-18.8 28.1-33.514.027-.3-.08-.597-.294-.81zM21.41 22.788a60.09 60.09 0 01-5.219 4.236V9.721a32.623 32.623 0 015.22-3.476v16.543zM11.494 30.1a50.861 50.861 0 01-3.939 2.097l.393-4.036c.058-.525-.428-1.19-1.11-1.11l-4.035.392c1.363-2.891 5.034-9.624 11.356-15.89v16.88a57.998 57.998 0 01-2.665 1.667zm19.73-22.208c-1.194 3.537-3.512 8.643-7.781 12.953V5.232c2.78-1.343 7.03-2.547 9.19-2.866a37.061 37.061 0 01-1.41 5.525z"
      fill="#fff"></path>
  </symbol>
  <symbol fill="none" xmlns="http://www.w3.org/2000/svg" id="icondelivery">
    <path
      d="M26.355 15.979a4.378 4.378 0 00-4.373 4.373 4.378 4.378 0 004.373 4.372 4.378 4.378 0 004.373-4.372 4.378 4.378 0 00-4.373-4.373zm0 6.559a2.189 2.189 0 01-2.186-2.186c0-1.206.98-2.187 2.186-2.187s2.187.98 2.187 2.187c0 1.205-.98 2.186-2.187 2.186zm-14.941-6.559a4.378 4.378 0 00-4.373 4.373 4.378 4.378 0 004.373 4.372 4.378 4.378 0 004.373-4.372 4.378 4.378 0 00-4.373-4.373zm0 6.559a2.189 2.189 0 01-2.186-2.186c0-1.206.98-2.187 2.186-2.187s2.187.98 2.187 2.187c0 1.205-.98 2.186-2.187 2.186zM29.3 3.462a1.094 1.094 0 00-.977-.602h-5.758v2.186h5.084l2.977 5.921 1.954-.982-3.28-6.523z"
      fill="#fff"></path>
    <path
      d="M23.076 19.295h-8.273v2.186h8.273v-2.186zm-14.942 0h-3.79a1.093 1.093 0 100 2.186h3.79a1.093 1.093 0 100-2.186zm26.483-6.684l-2.15-2.77a1.092 1.092 0 00-.864-.422h-7.944V1.766c0-.604-.49-1.093-1.094-1.093H4.345a1.093 1.093 0 100 2.186h17.127v7.653c0 .604.49 1.093 1.093 1.093h8.502l1.593 2.051v5.639h-3.025a1.093 1.093 0 100 2.186h4.118c.604 0 1.093-.49 1.093-1.093v-7.106c0-.243-.08-.479-.23-.67zM8.062 13.756h-5.03a1.093 1.093 0 100 2.186h5.03a1.093 1.093 0 100-2.186zm2.514-4.301H1.247a1.093 1.093 0 100 2.187h9.33a1.093 1.093 0 100-2.187z"
      fill="#fff"></path>
    <path d="M12.362 5.155h-9.33a1.093 1.093 0 100 2.187h9.33a1.093 1.093 0 100-2.187z" fill="#fff"></path>
  </symbol>
  <symbol fill="none" xmlns="http://www.w3.org/2000/svg" id="iconmaterials">
    <path
      d="M33.83 12.418h-7.274l.003-.019a8.25 8.25 0 002.014-2.575 1.016 1.016 0 00-.91-1.471h-1.568a8.992 8.992 0 00-1.484-2.656 8.246 8.246 0 00-.397-3.241 1.016 1.016 0 00-1.683-.397L21.419 3.17a8.983 8.983 0 00-2.92-.827C17.732 1.44 16.848.724 15.922.261a1.017 1.017 0 00-1.471.91v1.636a8.992 8.992 0 00-2.655 1.484 8.246 8.246 0 00-3.242.397 1.016 1.016 0 00-.397 1.683L9.27 7.482a8.983 8.983 0 00-.828 2.923 8.283 8.283 0 00-1.705 2.013H1.17c-.561 0-1.016.455-1.016 1.017V17.5c0 .561.455 1.016 1.016 1.016h1.084V33.83c0 .561.455 1.016 1.017 1.016h4.065c.562 0 1.017-.455 1.017-1.016v-3.445l9.147-3.66 9.147 3.66v3.445c0 .561.455 1.016 1.017 1.016h4.065c.562 0 1.017-.455 1.017-1.016V18.516h1.084c.561 0 1.016-.455 1.016-1.016v-4.066c0-.56-.455-1.016-1.016-1.016zm-23.79-.695c.232-.18.375-.45.392-.743.068-1.135.392-2.2.962-3.168.236-.4.171-.908-.156-1.235l-.274-.274c.34-.01.684.006 1.031.05.291.037.584-.053.803-.248a7.01 7.01 0 012.924-1.563c.448-.116.762-.52.762-.984v-.402c.241.238.474.5.695.786.18.232.45.374.743.392a7 7 0 013.168.962c.4.236.907.171 1.235-.157l.274-.273c.01.34-.006.684-.05 1.031-.037.29.053.583.248.803a7.011 7.011 0 011.563 2.924c.116.448.52.761.984.761h.383a6.63 6.63 0 01-.767.696c-.232.18-.375.45-.392.743a7.858 7.858 0 01-.06.594h-4.134A3.053 3.053 0 0017.5 8.352a3.053 3.053 0 00-2.874 4.066H9.273c.234-.248.49-.48.767-.695zm8.476-.321a1.018 1.018 0 01-2.032 0 1.018 1.018 0 012.032 0zM6.32 32.813H4.287V18.516H6.32v14.297zm2.033-4.618v-5.128l6.41 2.564-6.41 2.564zm18.294 0l-6.41-2.564 6.41-2.564v5.128zm0-7.318l-9.147 3.66-9.147-3.66v-2.36h18.294v2.36zm4.066 11.936H28.68V18.516h2.033v14.297zm2.1-16.33H2.187v-2.032h30.626v2.033z"
      fill="#fff"></path>
  </symbol>
  <symbol fill="none" xmlns="http://www.w3.org/2000/svg" id="perfectfit">
    <path
      d="M41.836 60.031h-5.977v-4.25h2.663a1.992 1.992 0 100-3.984H35.86v-3.984h5.32a1.992 1.992 0 000-3.985h-5.32v-3.984h2.663a1.992 1.992 0 000-3.985H35.86v-3.984h5.32a1.992 1.992 0 000-3.984h-5.32v-3.985h2.663a1.992 1.992 0 100-3.984H35.86v-3.985h5.32a1.992 1.992 0 000-3.984h-5.32V7.97h2.663a1.992 1.992 0 000-3.985H35.86V1.992a1.992 1.992 0 00-3.984 0v58.04h-7.193L25.778 42.5h.127c1.1 0 1.992-.892 1.992-1.992V27.223c0-4.422-2.899-8.179-6.896-9.474a5.978 5.978 0 002.918-5.132 5.983 5.983 0 00-5.976-5.976 5.983 5.983 0 00-5.977 5.976 5.979 5.979 0 002.916 5.13c-3.999 1.294-6.9 5.052-6.9 9.476v13.285c0 1.1.892 1.992 1.992 1.992h.12l1.097 17.531H1.992c-1.1 0-1.992.892-1.992 1.992v3.985a1.992 1.992 0 003.984 0v-1.992h35.86v1.992a1.992 1.992 0 103.984 0v-3.985c0-1.1-.892-1.992-1.992-1.992zM17.943 10.625c1.098 0 1.992.894 1.992 1.992a1.994 1.994 0 01-1.992 1.992 1.994 1.994 0 01-1.992-1.992c0-1.098.893-1.992 1.992-1.992zm-5.977 16.598a5.98 5.98 0 015.974-5.973 5.98 5.98 0 015.973 5.973v11.293H11.966V27.223zm2.12 15.277h7.7L20.69 60.031h-5.507L14.087 42.5z"
      fill="#000"></path>
  </symbol>
  <symbol fill="none" xmlns="http://www.w3.org/2000/svg" id="phoneicon">
    <path
      d="M12.669 13.155c-.235.5-.704.751-1.173 1.002-.587.376-1.056.501-1.642.501-.821 0-1.643-.376-2.346-.626-.587-.251-1.056-.502-1.643-.752-1.642-1.128-3.519-3.133-4.457-4.761a11.785 11.785 0 01-.821-1.755C.352 5.887 0 5.136 0 4.134c0-.627.117-1.254.47-1.88.234-.501.468-1.002.938-1.253.352 0 .938-.125 1.29-.125h.235c.234.125.352.5.469.751.234.627.586 1.128.821 1.755.235.25.47.5.47.751 0 .627-1.643 1.504-1.643 2.005 0 .25.235.626.352.877.938 1.754 2.111 3.007 3.754 4.01.234.125.586.375.82.375.47 0 1.291-1.754 1.878-1.754.234 0 .469.25.704.501.469.376 1.055.627 1.524 1.003.235.125.587.25.704.501v.25c.118.251 0 .878-.117 1.254z"
      fill="#fff"></path>
  </symbol>
  <symbol fill="none" xmlns="http://www.w3.org/2000/svg" id="strong">
    <path
      d="M33.875 30.181V19.817h4.15c9.893 0 17.942-8.049 17.942-17.942C55.967.84 55.127 0 54.092 0h-6.027C41.037 0 34.94 4.063 32 9.962 29.058 4.062 22.962 0 15.933 0H9.908C8.873 0 8.033.84 8.033 1.875c0 9.893 8.049 17.942 17.942 17.942h4.15V30.18C13.325 31.152 0 45.081 0 62.125 0 63.16.84 64 1.875 64h60.25C63.16 64 64 63.16 64 62.125c0-17.044-13.325-30.973-30.125-31.944zM48.065 3.75h4.028c-.92 6.942-6.879 12.317-14.068 12.317h-4.027c.92-6.943 6.877-12.317 14.067-12.317zm-22.09 12.317c-7.19 0-13.148-5.375-14.068-12.317h4.026c7.19 0 13.148 5.375 14.069 12.317h-4.027zM3.81 60.25c.929-14.33 11.435-22.005 18.282-24.584v4.712c0 .572-.223 1.11-.628 1.515l-6.025 6.025a5.898 5.898 0 000 8.33l4.001 4.002H3.81zm20.933 0l-6.652-6.653a2.14 2.14 0 010-3.028l6.025-6.025a5.853 5.853 0 001.726-4.166v-5.83A28.366 28.366 0 0132 33.876c4.914 0 9.677 1.259 13.906 3.659L35.522 47.918a5.888 5.888 0 000 8.33l4.001 4.002h-14.78zm20.084 0l-6.653-6.653a2.14 2.14 0 010-3.028L49.1 39.643A28.253 28.253 0 0160.188 60.25H44.827z"
      fill="#000"></path>
  </symbol>
  <symbol fill="none" xmlns="http://www.w3.org/2000/svg" id="unique">
    <path
      d="M67.58 64.784c-.105-.135-2.63-3.336-7.98-6.493-2.61-1.541-6.209-3.24-10.814-4.482a69.333 69.333 0 002.564-13.706c.541-6.407.157-12.667-1.142-18.607-1.629-7.443-4.704-14.392-9.14-20.655a1.992 1.992 0 00-3.251 0 57.452 57.452 0 00-3.787 6.122A57.406 57.406 0 0030.243.84a1.992 1.992 0 00-3.251 0c-4.437 6.262-7.512 13.212-9.14 20.655-1.3 5.94-1.684 12.2-1.143 18.607a69.254 69.254 0 002.646 13.981c-4.245 1.204-7.67 2.76-10.234 4.18C3.467 61.392.623 64.55.504 64.682A1.992 1.992 0 001.992 68h64.016a1.992 1.992 0 001.572-3.216zM20.963 26.958l13.363-9.08a52.198 52.198 0 011.046 3.84L20.53 31.804c.073-1.56.212-3.18.433-4.846zm1.01-5.504a52.327 52.327 0 016.646-15.88 52.556 52.556 0 014.322 8.428l-10.967 7.452zm-1.477 15.19L36.18 25.987c.645 4.373.776 8.924.388 13.64a65.613 65.613 0 01-2.244 12.389 57.109 57.109 0 00-11.085 1.126 65.327 65.327 0 01-2.558-13.375 61.201 61.201 0 01-.184-3.123zm14.177 19.353c10.801 0 18.316 3.054 22.718 5.617a33.152 33.152 0 013.58 2.402H7.435c4.744-3.346 13.779-8.019 27.24-8.019zm4.771-50.423c6.314 9.995 8.986 21.436 7.947 34.053a65.47 65.47 0 01-2.508 13.298 54.31 54.31 0 00-6.45-.792 69.732 69.732 0 002.092-12.03c.541-6.407.157-12.667-1.142-18.607a56.366 56.366 0 00-3.169-9.964 52.205 52.205 0 013.23-5.958z"
      fill="#000"></path>
  </symbol>
  <symbol fill="none" xmlns="http://www.w3.org/2000/svg" id="phoneiconblack">
    <path
      d="M11.974 9.298c-.034-.102-.25-.253-.648-.452a19.972 19.972 0 00-.46-.256 32.7 32.7 0 01-.997-.562 11.171 11.171 0 00-.213-.15 2.395 2.395 0 00-.303-.183.558.558 0 00-.242-.06c-.114.001-.256.082-.426.244a4.15 4.15 0 00-.469.528c-.142.19-.293.367-.452.529-.159.162-.29.243-.392.243a.58.58 0 01-.191-.043 1.989 1.989 0 01-.175-.072c-.04-.02-.108-.06-.205-.12a5.297 5.297 0 00-.162-.098 8.956 8.956 0 01-2.002-1.483A8.951 8.951 0 013.154 5.36a4.945 4.945 0 00-.098-.162c-.06-.096-.1-.164-.12-.204a1.848 1.848 0 01-.072-.175.577.577 0 01-.043-.192c0-.102.081-.232.243-.392a4.96 4.96 0 01.529-.451c.19-.142.366-.298.528-.469.162-.17.243-.312.243-.426 0-.08-.02-.16-.06-.243a2.37 2.37 0 00-.183-.302l-.15-.214a18.685 18.685 0 01-.263-.455c-.091-.162-.19-.343-.299-.542a20.244 20.244 0 00-.255-.46c-.2-.397-.35-.613-.452-.647A.477.477 0 002.523 0c-.153 0-.354.028-.6.085a3.375 3.375 0 00-.585.18C1.054.382.753.73.435 1.303.145 1.838 0 2.366 0 2.889a3.291 3.291 0 00.137.938c.05.181.092.316.123.404.031.088.09.246.175.473.085.228.136.367.153.418a7.72 7.72 0 00.708 1.491c.448.728 1.06 1.48 1.836 2.255.776.775 1.527 1.387 2.254 1.836.438.273.935.509 1.492.708.051.017.19.068.417.153.228.085.385.144.473.175.088.031.223.072.405.124a3.272 3.272 0 00.938.136c.522 0 1.05-.145 1.585-.435.574-.318.92-.619 1.04-.903a3.35 3.35 0 00.178-.584c.057-.247.086-.447.086-.6 0-.08-.009-.14-.026-.18z"
      fill="#292929"></path>
  </symbol>
  <symbol fill="none" xmlns="http://www.w3.org/2000/svg" viewBox="0 0 24 24" id="weight">
    <path
      d="M22.983 21.137L20.888 8.621a2.447 2.447 0 00-2.416-2.043h-3.148c.37-.643.58-1.388.58-2.181A4.401 4.401 0 0011.509 0a4.402 4.402 0 00-4.397 4.397c0 .793.211 1.538.58 2.181H4.545a2.447 2.447 0 00-2.416 2.044L.034 21.14A2.454 2.454 0 002.45 24h18.119a2.455 2.455 0 002.414-2.863zM11.509 2.561c1.011 0 1.835.824 1.835 1.836a1.837 1.837 0 01-1.835 1.835 1.838 1.838 0 01-1.836-1.835c0-1.013.823-1.836 1.836-1.836z"
      fill="#000"></path>
  </symbol>
  <symbol fill="none" xmlns="http://www.w3.org/2000/svg" viewBox="0 0 18 24" id="time">
    <path
      d="M17 22h-1v-3.273a5.755 5.755 0 00-1.903-4.274l-1.693-1.523a1.238 1.238 0 01-.414-.93c0-.359.147-.689.414-.929l1.693-1.523A5.76 5.76 0 0016 5.273V2h1a1 1 0 100-2H1a1 1 0 100 2h1v3.273c0 1.628.693 3.186 1.903 4.274l1.693 1.523c.267.241.414.571.414.93 0 .359-.147.689-.414.929l-1.693 1.523A5.76 5.76 0 002 18.727V22H1a1 1 0 100 2h16a1 1 0 100-2zM5 18.829c0-.735.286-1.425.806-1.945L8.47 14.22a.75.75 0 011.061 0l2.664 2.664c.52.52.806 1.21.806 1.945V22H5v-3.171z"
      fill="#000"></path>
  </symbol>
  <symbol fill="none" xmlns="http://www.w3.org/2000/svg" viewBox="0 0 24 15" id="length">
    <path
      d="M7.006 4.095L7.007 0 0 7.01l7.007 7.008V9.924l9.985.002v4.093L24 7.01 16.992 0v4.095H7.006z"
      fill="#010002"></path>
  </symbol>
  <symbol fill="none" xmlns="http://www.w3.org/2000/svg" viewBox="0 0 24 24" id="thickness">
    <path
      d="M22.594 5.484H1.454a1.406 1.406 0 000 2.813h21.14a1.406 1.406 0 000-2.813zM23.063 0H.938a.937.937 0 100 1.875h22.125a.937.937 0 100-1.875zm-1.407 19.313H2.391a2.344 2.344 0 100 4.687h19.265a2.344 2.344 0 100-4.688zm.469-7.407H1.922a1.875 1.875 0 000 3.75h20.203a1.875 1.875 0 100-3.75z"
      fill="#000"></path>
  </symbol>
  <symbol fill="none" xmlns="http://www.w3.org/2000/svg" viewBox="0 0 18 18" id="width">
    <path
      d="M3.409 10.48L.513 7.583l.002 9.912h9.91L7.53 14.602l7.062-7.06 2.895 2.895V.524H7.573l2.895 2.895-7.06 7.06z"
      fill="#010002"></path>
  </symbol>
  <symbol fill="none" xmlns="http://www.w3.org/2000/svg" viewBox="0 0 15 29" id="nextarrow">
    <path d="M1 1l12.086 12.086a2 2 0 010 2.828L1 28" stroke="#000" stroke-width="2"
      stroke-linecap="round"></path>
  </symbol>
  <symbol fill="none" xmlns="http://www.w3.org/2000/svg" viewBox="0 0 15 29" id="prevarrow">
    <path d="M14 28L1.914 15.914a2 2 0 010-2.828L14 1" stroke="#000" stroke-width="2"
      stroke-linecap="round"></path>
  </symbol>
  <symbol fill="none" xmlns="http://www.w3.org/2000/svg" viewBox="0 0 46 67" id="playbig">
    <path
      d="M43.244 37.39L8.63 64.967c-3.31 2.625-8.178.266-8.178-3.956V5.857C.452 1.634 5.32-.724 8.63 1.9l34.614 27.577c2.51 2.016 2.51 5.896 0 7.912z"
      fill="#fff"></path>
  </symbol>
  <symbol viewBox="0 0 9 7" fill="none" xmlns="http://www.w3.org/2000/svg" id="triangle">
    <path d="M4.5 7L0.602887 0.249999L8.39711 0.25L4.5 7Z" fill="#292929"/>
  </symbol>
    <symbol  xmlns="http://www.w3.org/2000/svg" viewBox="0 0 24 15" id="length">
    <path d="M7.00642 4.09528L7.00723 0L0 7.00964L7.00723 14.0185L7.00642 9.9232L16.992 9.92481V14.0185L24 7.00964L16.992 0V4.09528H7.00642Z"></path>
  </symbol>

  <symbol xmlns="http://www.w3.org/2000/svg" viewBox="0 0 18 18" id="weight">
    <path d="M3.4085 10.4797L0.51327 7.58335L0.514976 17.4948L10.4258 17.4959L7.52946 14.6007L14.5914 7.54097L17.4861 10.4356L17.4855 0.524211L7.57354 0.523074L10.4693 3.41887L3.4085 10.4797Z"></path>
  </symbol>
  <symbol xmlns="http://www.w3.org/2000/svg" viewBox="0 0 24 24" id="thickness">
    <path d="M22.5938 5.48438H1.45312C0.6765 5.48438 0.046875 6.114 0.046875 6.89062C0.046875 7.66725 0.6765 8.29688 1.45312 8.29688H22.5938C23.3704 8.29688 24 7.66725 24 6.89062C24 6.114 23.3704 5.48438 22.5938 5.48438Z"></path>
    <path d="M23.0625 0H0.9375C0.419719 0 0 0.419719 0 0.9375C0 1.45528 0.419719 1.875 0.9375 1.875H23.0625C23.5803 1.875 24 1.45528 24 0.9375C24 0.419719 23.5803 0 23.0625 0Z"></path>
    <path d="M21.6562 19.3125H2.39062C1.09622 19.3125 0.046875 20.3618 0.046875 21.6562C0.046875 22.9507 1.09622 24 2.39062 24H21.6562C22.9507 24 24 22.9507 24 21.6562C24 20.3618 22.9507 19.3125 21.6562 19.3125Z"></path>
    <path d="M22.125 11.9062H1.92188C0.886359 11.9062 0.046875 12.7457 0.046875 13.7812C0.046875 14.8168 0.886359 15.6562 1.92188 15.6562H22.125C23.1605 15.6562 24 14.8168 24 13.7812C24 12.7457 23.1605 11.9062 22.125 11.9062Z"></path>
  </symbol>

   <symbol xmlns="http://www.w3.org/2000/svg" viewBox="0 0 32 36" id="time">
    <g filter="url(#filter0_d)">
      <path d="M24 26H23V22.727C23 21.099 22.307 19.541 21.097 18.453L19.404 16.93C19.137 16.689 18.99 16.359 18.99 16C18.99 15.641 19.137 15.311 19.404 15.071L21.097 13.548C22.307 12.458 23 10.901 23 9.273V6H24C24.553 6 25 5.552 25 5C25 4.448 24.553 4 24 4H8C7.447 4 7 4.448 7 5C7 5.552 7.447 6 8 6H9V9.273C9 10.901 9.693 12.459 10.903 13.547L12.596 15.07C12.863 15.311 13.01 15.641 13.01 16C13.01 16.359 12.863 16.689 12.596 16.929L10.903 18.452C9.693 19.542 9 21.099 9 22.727V26H8C7.447 26 7 26.448 7 27C7 27.552 7.447 28 8 28H24C24.553 28 25 27.552 25 27C25 26.448 24.553 26 24 26ZM12 22.829C12 22.094 12.286 21.404 12.806 20.884L15.47 18.22C15.763 17.927 16.238 17.927 16.531 18.22L19.195 20.884C19.715 21.404 20.001 22.094 20.001 22.829V26H12V22.829Z"></path>
    </g>
    <defs>
      <filter id="filter0_d" x="-4" y="0" width="40" height="40" filterUnits="userSpaceOnUse" color-interpolation-filters="sRGB">
        <feFlood flood-opacity="0" result="BackgroundImageFix"></feFlood>
        <feColorMatrix in="SourceAlpha" type="matrix" values="0 0 0 0 0 0 0 0 0 0 0 0 0 0 0 0 0 0 127 0" result="hardAlpha"></feColorMatrix>
        <feOffset dy="4"></feOffset>
        <feGaussianBlur stdDeviation="2"></feGaussianBlur>
        <feComposite in2="hardAlpha" operator="out"></feComposite>
        <feColorMatrix type="matrix" values="0 0 0 0 0 0 0 0 0 0 0 0 0 0 0 0 0 0 0.25 0"></feColorMatrix>
        <feBlend mode="normal" in2="BackgroundImageFix" result="effect1_dropShadow"></feBlend>
        <feBlend mode="normal" in="SourceGraphic" in2="effect1_dropShadow" result="shape"></feBlend>
      </filter>
    </defs>
  </symbol>

  <symbol xmlns="http://www.w3.org/2000/svg" viewBox="0 0 32 32" id="width">
    <path d="M26.983 25.137L24.8878 12.6207C24.6908 11.4406 23.6687 10.5781 22.4724 10.5781H19.3245C19.6937 9.93501 19.9047 9.19002 19.9047 8.39667C19.9047 5.97245 17.9328 4 15.5081 4C13.0838 4 11.1114 5.97245 11.1114 8.39667C11.1114 9.19002 11.3225 9.93501 11.6916 10.5781H8.54367C7.34689 10.5781 6.32532 11.4416 6.12828 12.6218L4.03366 25.1396C3.91461 25.8492 4.11476 26.5797 4.58006 27.1287C5.04588 27.6782 5.72901 28 6.44957 28H24.5686C25.2892 28 25.9723 27.6782 26.4381 27.1287C26.9029 26.5786 27.1025 25.8472 26.983 25.137ZM15.5086 6.56148C16.5203 6.56148 17.3438 7.38498 17.3438 8.39719C17.3438 9.40941 16.5203 10.2324 15.5086 10.2324C14.4964 10.2324 13.6729 9.40889 13.6729 8.39667C13.6729 7.38446 14.4964 6.56148 15.5086 6.56148Z"></path>
  </symbol> 
</svg>